<?xml version="1.0" encoding="UTF-8"?>
<svg width="496.48" height="248.73" enable-background="new 0 0 496.48 248.734" viewBox="0 0 496.48 248.734" xmlns="http://www.w3.org/2000/svg">
 <g fill-rule="evenodd">
  <path d="m167.23 83.988-32.304-5.221-46.716 14.416-28.577-14.415v-3.727l18.14-9.191 33.794 6.458h20.874v-2.485l-9.194-1.24h-2.485l-22.11-3.978-28.577-5.216h-22.115 7.703l13.169-5.221h8.946l-18.14-3.729-25.842 3.729-15.655-5.219h5.219l7.703-2.482h6.461l-7.704-2.734-24.6 1.49-5.218-1.491 71.316-8.945 82.995 6.459h67.59l-7.952-1.24h-10.187l-7.953-1.244h2.733l65.601-9.195 74.049 3.979h66.099l-227.87-15.657h-3.976l13.171-1.244h3.727l85.234-5.216 98.647-10.436 76.535 37.769h-15.655l-35.03 28.328-14.162 5.217 19.38 6.461 59.637-7.702-33.543 16.896h19.381l28.577 18.138 18.139 5.221h-41.498l-45.474-6.461-41.497 2.484h-1.242l3.729 1.494h1.489l72.559 6.458-10.437 1.242-14.165 3.978h-83.006l-84.485-3.978-70.819-12.922h-2.733l-6.462-2.732-2.483-1.24v-2.484l2.483-1.489v-5.218l-5.217-2.486v-3.975z" fill="#cfedf4"/>
  <path d="m158.54,182.88-32.305-6.457-49.697,12.173-31.062-15.657-11.928-5.466 .995-49.45 4.472-9.938v-.995l3.23-3.479 1.244-.993 60.631-2.235 6.709,6.707 22.116,3.232 8.944.995 77.28,7.701 66.844,9.94 70.82-3.479 67.589,8.945 13.168.995 15.405,6.71 13.419.995v6.711l-9.939,9.938-20.127-7.705-11.926,5.466v2.239l.991,1.24v1.989l10.935,2.237 15.653,7.701h10.935v3.483l-14.411,4.472h-35.287l8.945,4.222 12.177,4.474 8.698,2.237h-10.932l-11.186,3.229h-10.935l55.166,26.588-5.468-5.466-38.764,4.471-7.703,7.706h-5.466l-44.229-5.467v-3.482l-23.359-5.467-28.576-5.466h-23.356v-4.472l-50.692-5.219-7.703-2.482-24.105-7.705-23.853,3.976-23.33-9.68z" fill="#bfe347"/>
  <path d="m291.98.993-.994,1.985 1.242,1.99-1.74,1.493-.744,2.483-1.74,1.989-1.987,1.985 .495.749-.992.496v.745l.248,3.481-2.982,2.234 .25,3.478-1.989,6.46 .496,8.45 2.983,5.962 11.431-.495 10.188-.25 11.429-.994 .746,1.494 1.242-1.494h1.242l3.976-4.222-.495-6.46 2.733-4.972 .744-7.701 .498-.745h.744l.746.496 .249.745-1.49,12.426-2.487,12.173-.744,12.921-1.242,6.211 7.951-2.978 3.727,1.488 8.698-.248 4.719-1.985 1.743-4.971 2.234-3.979 .498-4.222-.994-5.219 2.484-3.48 .993-.496 .748.745 .495.745 2.732-3.727 .498-5.219 2.234-3.973 .749-1.494-2.237-3.229 2.732-.25 .744,1.244 .746,8.2-1.241,7.206-.499,8.201-.495,1.49-1.49-.995-.747-.496-.744-.25-.498-1.244h-.744l-.745,20.377 3.479,21.372 8.944,17.889 3.976,7.705 3.977,7.701 5.964,6.71 .497-.249 .497.499 .495.495v1.74l-2.979,1.242 1.49,2.235-.995,1.989-1.986-2.734-1.242,1.739-1.492.745 9.194,11.927 12.425,10.935 12.922,6.711-.25,1.987-2.732-.994-.994,1.989-2.981-.499-3.481-1.49-2.979,1.739 .497,9.445 .745,9.193 .747,9.69-.25.995 1.24.994-.742.743-32.055,3.479-30.316,9.445-29.57,10.188-19.63,7.951 .248,1.244-1.737-.25 .245,1.244-1.49-.499h-2.734l-.497-.25-.247-.496 .247-.496-15.159-7.456-15.9-5.965-15.654-6.212h-1.491l-1.242-1.244-1.491-.246-.498.745-.497.496-.744-.246-.747-.25 .497-.745-.248-.499-8.696-3.727-9.445-3.23-9.192-2.983-.249.25-2.237-1.737-2.98-.499-2.734-.995-13.419-4.472-.744.745h-.747l-.497-.496-.498-.995-6.461-1.989-6.708-2.235-6.708-1.74-.25.498-.745.992-.745-.745-.497-1.492-21.122-5.961-21.37-5.469-21.619-4.472-.745-.745 .994-.749h.745l.995-1.488-.747-5.219 1.989-6.211-1.492-5.467-2.235-1.493-2.733,1.493-2.484-.499h-1.038l-.497-.745-.747-.495v-.995l3.231-1.242 3.23-1.244 2.733-1.985v-5.965l-.745-.496h-4.721l-3.728-1.743-4.72.995-.498-.496-.744-.499 .496-.496 13.419-9.443 12.672-11.429 12.922-10.683v-.25h-2.981l-2.238-.745-2.733.246-.496-.496-.248-.5 .248-.496 16.648-11.428 16.152-15.16 11.43-16.895v-.499l-.249-.25-.248-.246h-1.74l-2.732,2.485-.995-2.239 1.492-5.712 3.975-4.973 .744-6.211h1.242l-.495-.995 .745-.743 1.491,1.488-.497,1.989-.497,1.739-.498,2.485-1.242,2.237-.994,2.484 4.969-.246 4.722-1.494 4.969-.495 .248.246 .498.249 .25-.249 2.98-6.957 4.97-6.461-.995-8.45-.497-.745-.498-.745 .498-.743h.995l.747-.25 .992.745 3.48,5.22-5.219,5.217 1.491,5.961v1.989l1.989,1.49 1.489,1.242 5.219.25 4.97-1.987 5.219-.25 29.32-3.729 36.528-4.717 2.237-.5 2.237-1.49 1.985.746 7.953-4.722 .995-9.69 3.728-7.455 1.488-2.483 3.481.496 .995-2.984 .744-1.241-.995-1.739 1.25-.991h1.741v.993z" fill="#282420"/>
  <path d="m272.84,39.261-.496-.995-1.242-.25-.994.496-32.801.25-32.055,4.971-32.801,2.485 .747-3.479 2.484-3.727 1.491-3.729 .248,3.729 1.74,3.477 3.479,1.99 1.492.495 15.157-3.228 15.655-1.739 15.405-1.989 36.528-4.472 4.721.25 3.976-3.233 2.485-3.727-1.986,3.977-.994,4.472-2.26,3.976z" fill="#f0bf91"/>
  <path d="m281.29,41.993-.249.995 .496.991 .499.75-.499.745-1.738-.745-.994.495-.498-1.49 .747-2.486-2.485-.496-.995-.495-.75.743-.245.745-.996,3.977-2.236,4.222-1.987,3.978-7.458,12.423-7.702,12.672-10.932,10.686-.995.248-1.489-.248-.746-.993 .248-.498 .498-.495-.498-.749-1.242-.991 20.377-15.16 12.672-22.115 8.45-21.867-.994,4.721v5.966l1.75,4.471z" fill="#fff08d"/>
  <path d="m362.05,44.973h-1.489l-.498-1.49-.744-.745 .496-4.226 1.74-4.222 1.24-3.979 .499,4.476-.745,5.468-.51,4.718z" fill="#e19f75"/>
  <path d="m323.28,60.383 .246.495-2.483.496 1.242-7.702-2.484,4.722-.994,2.235-1.243,2.486-1.985,1.985h-.499l-.746.25-.495.499 .248,1.241-10.685,13.171-13.172,11.428-13.167,10.19-4.475,2.482-.995-.496v-1.49l-.496-.497 13.666-7.206 13.419-9.445 9.692-13.912 4.223-5.221 2.486-6.211 3.727-5.466 1.739-2.984 .25-3.477 2.237-2.235-.75-1.494 1.989-.495 .25-1.244 1.242-2.233-.993,6.461-.499,7.206-.51,6.469z" fill="#fed95e"/>
  <path d="m270.11,40.75 .248.745 .248,1.492-.248,1.24-7.701,14.662-10.437,15.16-14.413,10.434-.995.995-1.489-.745-.747,1.244-30.067.246-38.764,1.494-18.885,1.49-.498-.995-2.733,2.237 1.244-1.987 9.939-13.171 9.442-13.169 8.945-13.419 1.242-.496 14.661-1.49 14.164-1.743 14.909-1.49 17.147-.995 16.399-2.482 18.39.743z" fill="#f9606c"/>
  <path d="m356.83,42.987 .246,18.387 1.244,17.893 6.213,15.655 4.222,12.173 6.711,10.933 7.703,10.189-.744.745v1.242l-.25.994-.995-.495-.744.745-.994.246-12.425-17.144-5.715-20.128-4.47-20.622-.995-7.951-.499-.749-.991-.246-.746.246-1.244,1.494-5.714,23.854-10.686,22.113-16.647,19.133-.747.25 .249-.995-.497-.246 16.399-17.893 9.197-21.618 7.453-22.365 1.738-8.446 1.988-8.95v-8.696l1.74.262z" fill="#fff08d"/>
  <path d="m275.82,45.472 .746-1.245 .248,1.245h-1z" fill="#f9a0ce"/>
  <path d="m319.56,45.722-.745,1.985-.747-.495-14.908.994-13.912-.745-14.661,1.24 .245-.995 13.421-1.24 12.918-.745 13.421-.5 1.24.995 2.236-.496h1.48z" fill="#e19f75"/>
  <path d="m235.57,47.212-7.205,8.943h-.498l-.497-.248-.498-.495 2.238-3.229 2.484-2.983 2.484-3.231 .995-.496v1.244l.51.495z" fill="#fff08d"/>
  <path d="m170.46,48.949v.25h-.498l.248.25-.745-.995-1.49.495-1.242.25-4.722.994-5.467-.25-4.473,1.74-.746-4.967 5.218,3.477 2.486-1.492 3.478-.745 3.231-1.49 3.727.496 .99,1.987z" fill="#f991c7"/>
  <path d="m238.3,48.702-.247,1.492-1.491.995-.747,1.49-.495.995-.497,1.244-.994.496-.995-.745 .745-1.244 .25-.995 .994-1.739 .992-1.987 1.741-.745 .75.743z" fill="#fff08d"/>
  <path d="m184.13,48.949-.498,1.49-9.691,14.661-.498-.246-.745-.25v-.499l2.981-5.466 3.976-4.968 3.23-5.218h.995l.24.496z" fill="#fff08d"/>
  <path d="m243.27,49.449-.745,1.739-.748,1.985-.991,1.494-.498.25-.248-.25-.249-.25v-2.235l1.242-1.743 .744-1.738 .748-.496 .248.743 .51.501z" fill="#fff08d"/>
  <path d="m249.48,50.193 .25,1.49-.747.994-.496,1.244-2.485-.499 2.235-2.484-.497-1.49 .747-.5 .496.745 .49.5z" fill="#fff08d"/>
  <path d="m318.06,49.694-4.72,9.445-4.97,9.442-7.704,8.201-5.468,7.701-7.7,4.474-6.957,5.466-3.978,2.237-4.225,2.734-4.474.495-.495.499 .248.246v.499l1.49.995 .495,1.737 .747,1.244-.992.745-3.479.246-3.979-.246-3.229.995-16.15-.25 .496-.994v-.745l-.496-.995 5.217-6.211 2.733-6.96 3.231-7.206-.995-.993 7.455-10.189 8.201-10.186 4.969-11.182 4.721-1.244 4.473.995 4.972-.496 8.944-.994 8.201.495 9.194-.246 4.22.231z" fill="#f4237c"/>
  <path d="m189.84,50.938-.993,3.229-2.237,2.732-1.491,2.984-1.242,1.244 .25,2.732-1.989-.25-.248-.25 1.986-4.472 1.74-4.968 3.976-3.233 .24.252z" fill="#fff08d"/>
  <path d="m168.72,51.434-7.206,12.427-9.443,11.68-8.946,11.678-.248,1.492h-2.733l1.242,1.985 .497.995 1.492-.495 .497.495-6.213,7.207-.992-.745-4.722-.746-5.47.493-4.225-1.24-1.988.995h-2.981l-2.486-.499 16.152-11.928 16.65-15.406 10.436-16.895 3.479-.994 3.728-.5h3.47z" fill="#d5228d"/>
  <path d="m193.57,54.168-.994,2.732-2.237,2.239-.498,2.981-.497.496-.745-.496v-.497l.248-3.229 1.988-2.487 1.74-2.484 .745-.25v.749l.25.246z" fill="#fff08d"/>
  <path d="m199.54,55.162-1.241,2.732-.995,2.734-1.242,2.732h-1.243l.25-1.738 .248-.995 .993-2.235 .746-2.239 1.244-2.233h.498l.496.745 .24.497z" fill="#fff08d"/>
  <path d="m283.28,54.667-2.488,4.722-5.464,3.727-2.487,4.719-.247.25-.497-.25v-.496l2.487-4.97 4.471-4.474 4.226-3.973v.745z" fill="#f9a0ce"/>
  <path d="m207.24,55.907-.744,2.237-.747,2.239-.744,2.233-.746.25-.497-.25v-2.981l1.242-1.49 .248-1.99-.746-.495 .498-1.242 2.235-.496v1.985z" fill="#fff08d"/>
  <path d="m288.49,56.155-1.737,3.48-2.236,3.48-1.989,3.725h-.495l.495-4.471 2.983-3.729 2.734-3.478h.245v.993z" fill="#f9a0ce"/>
  <path d="m212.96,56.9-.746,1.494-.248,1.74-.747,1.49-.745.25-.25-.25-.248-.745 1.242-5.219 .995-.248 .25.743 .51.745z" fill="#fff08d"/>
  <path d="m158.78,56.9 .249,1.245-1.989,1.49 1.74.249 .249,1.989-1.491,1.738-1.492,1.244-.248-.25h-.25l-.248-.499 .248-.495-.248-.25h-.994l-.745,1.739-.747-1.24 1.74-2.237 2.236-2.235 1.244-2.489h.75z" fill="#f991c7"/>
  <path d="m217.92,58.145-.747.995 .498,2.235h-1.739l-.994-1.49 1.242-1.49 .249-1.245 .745-.495 .498.995 .24.495z" fill="#fff08d"/>
  <path d="m291.72,60.383-1.242,2.233-1.49,2.484-1.49,1.989h-.498v-1.241l4.721-8.45 1.242.496-.992,1.494-.25.995z" fill="#f9a0ce"/>
  <path d="m349.62,66.84h-10.685l-10.189-.495-10.188-.995 .249-5.216 4.969,4.222 2.982-.994h7.456l10.437,4.473 5.219-7.451 1.24-.5v-1.244l.497-.991-2,9.191z" fill="#b68066"/>
  <path d="m295.45,60.383-3.974,6.707h-.249l-.248-3.229 2.484-2.732 1.491-2.983 .994.25-.249,1.241-.24.746z" fill="#f9a0ce"/>
  <path d="m299.18,64.106-.498.749-.497.246h-.745v-2.235l1.74-1.987 .994-1.989 1.74,1.739-2.238,1.987-.49,1.49z" fill="#fff08d"/>
  <path d="m241.28,65.35-.248.499-7.205-.749-33.795.995-10.934.25-10.933,1.739-10.436.995 22.859-4.474 26.838-.499 23.605.995 .26.249z" fill="#fff08d"/>
  <path d="m228.36,67.09-.747.745 .497,2.237-1.49-.497-.993-.993 1.241-1.243v-1.244h.995v.499l.5.496z" fill="#fff08d"/>
  <path d="m219.17,68.333-.249.496-.746.497-.497.496-1.242-.248 .995-.993v-.747l.995-1.24 .744.246v1.493z" fill="#fff08d"/>
  <path d="m214.94,67.09 .994,1.492-1.74.248-.497.993h-.746l-.746-1.24 1.988-1.243 .76-.25z" fill="#fff08d"/>
  <path d="m232.59,68.333-.249.496 .249.993-.995.25h-1.243l.497-1.49 .25-.747 .496-.745 .498.745 .48.498z" fill="#fff08d"/>
  <path d="m348.63,69.079v1.488l-4.473,15.906-7.949,14.412-7.703,14.412-3.481,4.971-3.477,4.971-4.724,3.975-.744-.25-.495.994-.25.248v.745l.745.25 .249.496-1.493.499-14.908.745h-14.163l-14.412-2.734 11.181-12.423 8.45-13.917 8.447-13.916 .995-1.738 .247-1.989 .496-1.99 5.468-5.961 4.971-4.472 5.217-6.211 10.438.495 10.932.995h10.39z" fill="#d5228d"/>
  <path d="m211.96,68.084-.747.995-.995.248-1.241.248-.498-.248 .746-.745 1.243-1.742 1.49,1.244z" fill="#fff08d"/>
  <path d="m205.25,67.834 .497,2.237h-2.733l-1.242.746-.497-.25h-.248l-.25-.245 1.242-.995 1.491-1.492h1.74z" fill="#fff08d"/>
  <path d="m197.3,68.829v.745l-.747.497-.496.25-.746-.25-.995.495-.498-.745 .747-.993 1.739-.496 1.01.497z" fill="#fff08d"/>
  <path d="m189.6,69.079 .498.743-.747.5-.497.496h-.498l-.497-.746 .497-1.242 1.25.249z" fill="#fff08d"/>
  <path d="m358.57,92.188 1.988,6.957 1.489,7.455 2.488,6.711-1.743,1.24-12.423,1.492-1.988-3.481-1.241-3.724-.995-3.978v-2.981l-1.242-2.983 .746-2.733-.498-1.49 3.729-7.705 2.234-8.446 2.734-8.2 .745,7.455 3.229,7.206 .74,7.204z" fill="#b68066"/>
  <path d="m323.53,70.817-1.49,4.971-3.229,4.224-1.739,4.971h-.25l-.245.496-.499-.25v-1.74l2.236-4.222 1.739-4.472 2.487-4.474h.245l.499.245 .23.251z" fill="#fff08d"/>
  <path d="m269.86,71.316-2.982,5.466-4.972,4.969-3.229,5.217-.495.25-.498-.496-.249-.25 2.733-4.971 4.225-4.224 2.982-4.721 .744-.745 .745-2.485 1.02,1.99z" fill="#f9a0ce"/>
  <path d="m234.82,72.061v.495l-22.613-.745-23.606.25-21.867,3.727-.498-.498 5.963-1.739 6.462-.496 6.459-.499 16.649-.995 17.395-1.24 15.66,1.74z" fill="#fff08d"/>
  <path d="m274.58,74.296-2.735,3.727-2.23,3.977-2.233,3.977-.746.246-.248-.995 .496-.495 2.236-4.472 2.237-4.473 3.232-4.227 .99.5-.745,1.49-.26.745z" fill="#f9a0ce"/>
  <path d="m319.31,73.551-.747,2.237-1.985,1.989-.994,2.235-1.492,2.237-.498,2.235-1.739,1.989h-.745v-1.245l2.484-4.222 1.74-4.474 2.981-3.727 .497.25h.498v.496z" fill="#fff08d"/>
  <path d="m232.09,75.54-1.244,1.987-.992,2.235-.994,1.989h-.498l-.498-2.983 1.74-2.732 1.738-2.235 .995-.25 .249,1.244-.5.745z" fill="#fff08d"/>
  <path d="m226.12,74.795-.747,1.737v2.984l-2.237.495v-1.989l1.242-1.987 .497-2.235 .747-.25 .498.745v.5z" fill="#fff08d"/>
  <path d="m221.9,75.041-.249.995-1.242.993-.248.995 1.49.994-.248,1.989-2.486-1.989-.993.995v-.495l-1.243-.25-.992-.25h-1.245l-.995.995-.743,1.49-1.492-.745 .25-.496 .497-.499 .498-.745-1.245-.495-1.74.246h-1.49l-.746.499-.497,1.244-1.242-.499-.497-.495 1.242-.25-.249-.499h-4.225l-1.242.994-1.242,1.494-1.49-.499-.25-.745h1.74v-.995h-4.473l-1.491.995-1.242,2.484-1.739-1.24 1.988-1.989-2.982-.25-3.231.5-2.483,1.739h-.497l-.25-.25-.248-.25 .746-.745h-7.207l-7.454.499-7.206.246 .993-.496 7.954-.994h8.944l8.2-1.244h2.485l3.478.745 1.989-2.235 .744-.25-.497,1.244 .497.25h2.487l2.483.246 1.491-2.235h.744l.25.495-.25.5-.248.495 .995.745 1.739-.496h1.242l.995-.745 .993-1.987 1.491.246 .497.25-.248.498v.495l-.249.5-.746.246-.248.25 3.478.499 1.242-.499 .747-1.737h1.242l.497.743-.993.745-.248.749 .992.246 .747.25 .995-.25 1.241-.995v-2.482h2.237v.492z" fill="#fff08d"/>
  <path d="m329,75.54-1.738,2.981-1.74,3.229-1.49,3.231-.25.246-.249-.246-.246.246 .25-3.227 1.741-2.734 1.49-2.734 .498-.745 .994-1.987 .75,1.74z" fill="#fff08d"/>
  <path d="m277.81,78.521-1.243,2.235-1.241,2.237-.744,2.234-.501.25v-.25l-.495-.246 .495-3.727 2.486-2.983 1.49-3.231 1.493.995-1.74,1.242v1.244z" fill="#f9a0ce"/>
  <path d="m142.63,76.532-2.483,4.474-4.723,3.478-3.727,3.479-.745-.246 .248-.749 .25-.246 3.727-3.234 2.982-4.472 4.224-2.734 .24.25z" fill="#f991c7"/>
  <path d="m332.23,77.277-.993,2.734-1.99,1.989-.745,2.982-.994.246 .247-.995-.247-.245 .745-2.733 1.24-2.983 1.988-1.74 .74.745z" fill="#fff08d"/>
  <path d="m335.71,78.022-.495,1.989-.994,2.484-1.989.993-.498-2.233 2.487-1.494 .495-2.235h.744l.25.496z" fill="#fff08d"/>
  <path d="m281.54,81.501-.746.994-.245,1.738-.994.749-1.245-.994 1.245-1.242 .247-.995 1.986-3.975 1.494.991-1.742,1.493v1.241z" fill="#f9a0ce"/>
  <path d="m285.51,82.746-.498.742-.746.995h-.991v-1.737l1.737-1.491 .746-1.494 1.242.749-1.24,1.49-.25.746z" fill="#f9a0ce"/>
  <path d="m141.64,81.006-1.244,2.732-1.739,3.23-2.484,1.742h-.747l.25-.993 .248-.25 1.492-2.484 1.241-2.734 2.486-1.492 .49.249z" fill="#f991c7"/>
  <path d="m179.16,80.756 .249.499h-.497l-.248.246-.25.25-.497-.25-.498.25 .498-.745 .747-.25h.5z" fill="#fff08d"/>
  <path d="m141.89,84.233 .25,1.494-1.741,1.24-.745.749-.745-1.244 1.49-1.74 .995-.995h.249v.25l.24.246z" fill="#f991c7"/>
  <path d="m244.26,97.9-1.49,1.989-1.492,2.734-2.235,1.242-.248,1.244-.994,1.49-1.242-.499 .496,1.494-8.696,9.938-8.947,10.439-10.934,7.452-17.395-4.474-17.145-4.471-18.886-.745-12.92-.745-12.922-.499-13.169.749-6.958,1.241 12.922-10.436 14.164-11.432 11.182-13.417 21.37-2.484 22.116.497 21.37-1.244 23.357.25 1.242,1.242 1.739.248 .747,1.492h1.986l2.485,2.484 1.739-2.484 1.738-1.987 1.988-1.989 1.492-1.99-1.492,4.474-2.235,3.976-2.74,4.232z" fill="#f4237c"/>
  <path d="m279.05,117.78-8.698,10.685-9.44,10.683-10.937,9.445-.245-.496v-1.245l15.653-10.932 11.928-16.152 10.188-15.41 3.727-5.217 2.733-5.716 3.229-5.712 .994-.995-.994,3.228-18.13,27.852z" fill="#def025"/>
  <path d="m329.74,89.702-2.235,3.48-.995,4.222-2.734,3.23 1.242-3.975 .994-4.722 2.733-3.727h.995v1.496z" fill="#fff08d"/>
  <path d="m325.52,90.694-1.74,3.233-.994,3.727-2.482,2.734h-.25v-.994l1.737-2.984 .499-3.727 2.484-2.734 .74.743z" fill="#fff08d"/>
  <path d="m126.73,93.183-.995.496v.995h-1.241l-.746-.25 .248-.994 .25-.246 2.235-1.989 .498.495v.995l-.25.498z" fill="#f661ae"/>
  <path d="m317.57,93.429-.991,1.244-.749,1.737-1.737.25-.248-1.987 1.985-1.989 1.493-1.49 .993.495-.497,1.244-.23.496z" fill="#fff08d"/>
  <path d="m314.34,91.443 .746,2.235-2.486.745-1.242,1.492h-.992l.496-1.738 1.491-2.239 1.98-.495z" fill="#fff08d"/>
  <path d="m321.79,93.183-1.239,1.739-1.242,2.234-1.741,1.494h-.247l.496-2.487 1.492-2.235 1.738-2.239h.743l.25.995-.25.499z" fill="#fff08d"/>
  <path d="m130.95,92.434-.248.995-.497.749-.747.745h-.248l-.25-.249-.248-.25v-.994l.745-.995 .747-.496 .497-.25v.499l.26.246z" fill="#f661ae"/>
  <path d="m252.71,142.38-1.987,1.488-1.739.995-1.988,1.244-.497,1.24h.994l.248.749-9.689.496-10.934-1.74-9.691-.995v-.745l5.467-5.217 4.225-6.461 4.97-5.965 3.478-6.211 4.969-5.965 1.242-7.206 7.705.25 6.709.499 7.456-1.244 3.229.25 3.23-.994 2.732.246 7.208-4.224 6.211-5.467 6.462-5.466-9.94,18.389-13.417,17.395-16.65,14.64z" fill="#ac1f8c"/>
  <path d="m168.97,93.183-1.241,2.484-1.989,2.483-1.491,2.484-.498.25-.248.25h-.497l.248-3.233 2.733-2.732 2.237-2.734h.249l.248.499 .25.253z" fill="#80003f"/>
  <path d="m160.52,93.928-3.23,2.981-3.726,3.23-3.23,2.732h-.25l-.497-.496 .25-.497 3.479-2.734 2.983-4.223 3.726-2.238 .747.25-.25,1.003z" fill="#80003f"/>
  <path d="m134.43,93.928v.745l-.248.249-.248.496-.497.25-.25-.499-.248-.495v-.496l-.498-.749 .995-.246h.497l.248.496 .26.249z" fill="#f661ae"/>
  <path d="m173.69,94.673-.992,2.483-1.491,2.734-1.74,1.989-.746-1.244 .993-1.24 .25-.995 2.733-4.472 1,.74z" fill="#80003f"/>
  <path d="m255.44,94.673-.994,3.727-3.727,3.229-2.235,2.981h-.747l-.248-.25 7.207-10.184h.249l.246.246 .25.251z" fill="#f9a0ce"/>
  <path d="m259.67,95.417-.247,2.237-1.493,1.989-.744,2.235h-1.489l.744-1.74v-.495l2.484-4.971h.498v.495l.25.248z" fill="#f9a0ce"/>
  <path d="m187.11,96.163-.248,2.237-1.242,1.989-.994,1.987h-.249l-.248-.248-.25-.25-.248-2.484 1.242-1.99 .993-1.987 .248.25h.498l.5.494z" fill="#80003f"/>
  <path d="m179.66,96.163-.497,1.988-1.242,1.494-1.492,1.49-.248.25-.248-.499h-.249l.745-1.989 .747-1.986 1.242-1.242 .498-.25 .497.498 .25.242z" fill="#80003f"/>
  <path d="m191.34,100.64h-.498l-.249.995-.496-.745v-1.74l.992-2.235 1.243-1.242 2.735,1.489-3.48,1.74-.24,1.728z" fill="#80003f"/>
  <path d="m307.38,96.66-4.472,7.455-5.964,6.461-3.979,7.701h-.744l3.728-8.2 6.46-6.708 4.474-7.702h.497v.992z" fill="#fff08d"/>
  <path d="m264.39,99.145-.249.5-.248.246h-.495l-1.245-1.49 1.493-1.491 .495-.994 1.243.745-.994,1.49v.994z" fill="#f9a0ce"/>
  <path d="m197.3,97.405-.249,1.74-.248,2.239-1.491.993-.995-1.987 1.244-2.238 .992-1.74 .25.25 .248.496 .25.257z" fill="#80003f"/>
  <path d="m205,97.9v1.494l-.498,1.49-.744,1.244-.498.248-.497-.497-.249-.496 .993-4.228 .747-.496 .248.995 .5.259z" fill="#80003f"/>
  <path d="m224.14,99.145-.248.745 .495,2.239-1.49-.25-.995-1.244 .995-1.49v-1.25h.744l.25.5 .25.745z" fill="#80003f"/>
  <path d="m211.46,99.644-.498.745 .248,1.987-1.49-.248-1.244-1.244 1.491-1.49v-1.25h.995l.498.499v.995z" fill="#80003f"/>
  <path d="m217.18,99.395-.497.994v1.987l-1.739-.248-.498-1.494 .747-1.24 .498-.995 .744-.5 .745.995v.495z" fill="#80003f"/>
  <path d="m347.88,116.29-13.914,1.987 3.231-5.961-.499-.994 2.734-3.977 1.242-4.721 2.481-3.974 .75,6.211 1.489,5.962 2.49,5.46z" fill="#f0bf91"/>
  <path d="m136.17,99.89v.499l-10.686,8.945-9.441,10.683-11.183,6.71-.994.496 .994.499v.496l1.242.995 7.208-1.241-2.983,1.985-2.484,2.732-3.479,1.244-1.242-.25v-.246l-6.211-1.743-6.461.25-6.461-.995 13.169-9.938 12.922-11.678 13.169-10.189 4.225.25 4.223.495h4.47z" fill="#ac1f8c"/>
  <path d="m125.73,102.13-3.229,2.482-3.479,2.239-2.981,2.979-.25-.248-.248-.497v-.495l2.981-3.233 3.479-2.484 3.478-1.987h.498l.248.745-.5.51z" fill="#f661ae"/>
  <path d="m126.23,103.62v.995l-1.49.499-.496.991 .496.25 .993-1.49 .497,1.24-.248,1.494-1.738.745-.995.995h-.995v-.496l-.248-.249-.497.249-.249.991-.745-.248-1.242-.743 1.49-.995 .497-.749 1.491-1.24 1.492-1.989 1.738-.994 .26.75z" fill="#f661ae"/>
  <path d="m307.88,105.11-1.988,3.975-2.235,3.478-2.239,3.729-.745-.248 .251-.993 .245-.249 1.989-3.729 1.739-3.477 2.983-3.233v.75z" fill="#fff08d"/>
  <path d="m162.76,106.35-.497.745-.992-.246-.747-.25-.248-.994 .994-.496 .745-.25 .497.25 .746.745-.49.49z" fill="#80003f"/>
  <path d="m219.91,107.84-1.489,2.483-1.245,2.484-1.241,2.734h-.248l-.25-.25-.248-.246 .498-3.233 1.489-3.228 1.989-2.489 .745.25 .498.745-.51.76z" fill="#fab1d7"/>
  <path d="m310.86,106.85-.995,3.228-1.739,3.233-1.49,3.228h-.495l-.497-.248v-.496l.992-3.233 2.239-2.733 .744-3.479h.994l.26.5z" fill="#fff08d"/>
  <path d="m170.21,107.1v.995l-.745.5h-.497l-.993.495-.498-.745 .746-.745 .497-1.989 1.49,1.47z" fill="#80003f"/>
  <path d="m186.12,107.59-1.241,1.74-1.491,2.483-2.237-.246-.497-.749 1.491-.495 .248-.746 .995-.992 1.243-2.984 1.5,1.99z" fill="#80003f"/>
  <path d="m177.92,107.59 .249,1.74-1.741.495-.992.748h-1.492l.248-.748 1.244-.991 .992-2.239 1.5,1z" fill="#80003f"/>
  <path d="m214.44,107.84-.497,2.733-1.489,2.235-1.741,1.989h-.498l-.495-.25v-.495l1.49-2.239 .995-2.235 1.241-2.237 .498-.25 .249.749h.25z" fill="#fab1d7"/>
  <path d="m145.61,109.08-8.199,7.703-.995.25 .498-1.242-.498-.25 8.698-7.702h.497v1.24z" fill="#fab1d7"/>
  <path d="m209.23,108.59-.746,2.233-1.739,2.239-1.739,1.49h-.498v-2.235l2.486-1.739 .746-2.237 .497-.496h.746l.24.75z" fill="#fab1d7"/>
  <path d="m192.08,110.33-.995.995-1.242,1.989-1.739-.499-.249-.25 1.243-1.491 .995-1.737 1.49-1.244 .995.5-.249.992-.23.75z" fill="#fab1d7"/>
  <path d="m197.3,108.59 .248,1.987-1.986,1.24-1.244,1.244-.498.25-.745-.25-.248-.499v-.496l.992-.25 .25-.495 .995-.995 .744-2.733 1.5,1z" fill="#fab1d7"/>
  <path d="m203.26,109.08-.993,1.738-1.74,2.984-2.235-.25-.249-.496 1.988-1.244 .497-2.732 1.988-.745 .73.74z" fill="#fab1d7"/>
  <path d="m229.36,127.97-9.941,13.168-12.92,14.412-15.158,5.965v-.994l-.747-.745-.993-.25 9.938-5.217 9.444-8.45 7.702-7.704 8.45-9.439 7.702-9.694 6.709-10.433-1.489,7.206-4.972,5.961-3.72,6.2z" fill="#fff08d"/>
  <path d="m313.34,109.33-.249,2.483-1.242,2.488-1.989,1.49-.495-2.734 3.229-1.739v-2.732h.251l.247.495 .25.25z" fill="#fff08d"/>
  <path d="m149.09,111.82-.744,2.239-2.983,1.24v2.486l-.496.246-.497-.496-.25-.496 .746-2.236 1.739-1.989 1.49-1.49 .497-.25 .248.25 .24.5z" fill="#fab1d7"/>
  <path d="m314.09,114.8-.498-.25 .498-.745 .497-.496 .246.745 .25.495-1,.26z" fill="#fff08d"/>
  <path d="m109.09,114.8-3.478,3.477-3.978,1.989-2.981,3.229h-.497l-.497-.745 .745-.246 9.94-8.7h.745v.99z" fill="#f661ae"/>
  <path d="m152.32,114.8-.496,1.242-.497,1.49-1.491.745-.747-1.49 1.245-1.492 .745-1.49 .498-.25 .248.994 .51.25z" fill="#fab1d7"/>
  <path d="m249.73,115.3-2.488,3.231-3.478,2.235-2.73,2.24-.993-.249 .993-.495 .248-.5 2.982-2.235 2.236-3.231 3.232-1.985v1z" fill="#f781bf"/>
  <path d="m157.04,116.54-.745,1.989v1.989l-1.491,1.24-1.492-1.985 2.236-1.989 .25-1.987 .498-.25 .495.745 .24.24z" fill="#fab1d7"/>
  <path d="m364.04,117.53v.496l-.25.499 .499.495-1.243.499-1.49.25-1.242-.499-9.441,1.49-9.692.749-9.444,1.241 .747-1.74 5.714-.995 5.468-1.49h5.964l4.475-.995 4.719-.25 4.724-.745 .48.99z" fill="#fff08d"/>
  <path d="m108.59,118.28-1.738,1.494-1.492,2.235-2.24,1v-1.989l2.733-1.49 1.242-1.493v-1.49l2.485.25-.99,1.49z" fill="#f661ae"/>
  <path d="m250.72,116.79 .248,2.484-2.483,1.989-1.492,1.49v-2.235l1.988-2.239 1.73-1.49z" fill="#f781bf"/>
  <path d="m163.5,118.03v1.493l-.249,1.74-.995.745-1.489-1.244 .994-2.235 .248-1.49 .497.246h.995v.75z" fill="#fab1d7"/>
  <path d="m375.96,130.7h-.744l-2.484-4.476-2.484-4.223-1.74-4.723 2.235,4.723 2.485,4.223 2.72,4.48z" fill="#b68066"/>
  <path d="m404.54,163.5 .25.498-2.239-.745-2.734,2.732-1.985-1.987-11.432-10.685-11.43-11.678-5.716-13.667-.498-2.734-2.24-2.24 .747-2.983-.249-.745-.996-.495 .498-1.244 5.964,17.891 15.158,17.644 16.9,10.43z" fill="#793118"/>
  <path d="m191.83,156.3-1.989.498-1.739,1.488-1.989.25-30.066-8.693-32.303-4.724-33.049-.499 1.739-.745 1.988-1.488 1.739-.5 2.486-2.235 3.478-1.493 2.733-1.984h.747l.745.496 .498-.745v-.25l.248-.496h-.497l4.225-1.739 3.23-3.729 3.976-2.486 20.874-.496h22.612l19.382,4.472 8.448,1.74 8.698,1.49 8.2,2.734v.498l.746.745h.495l8.45-5.466 7.953-7.455 6.458-7.456-9.442,14.166-14.163,14.412-14.91,9.7z" fill="#fd9f4c"/>
  <path d="m171.95,119.27-.498,1.244 .745,2.235-1.74.26-.498-1.49v-1.74l.248-1.494h.995l.248.5 .5.49z" fill="#fab1d7"/>
  <path d="m252.96,123h-.249l-.247-1.989 1.737-1.49 1.494-1.244 .495,1.989-1.989,1.49-1.23,1.24z" fill="#f781bf"/>
  <path d="m256.19,123.25h-.25l-.24-.25h-.251v-1.244l.995-.994 .745-.745 .744,1.244-.994.995-.74.99z" fill="#f781bf"/>
  <path d="m364.53,121.51 1.985,3.727 .498,4.224 2.485,3.727v2.235l.247,2.487v2.235l-2.236-2.982-4.224-2.484h-4.224l-5.219,1.74-3.975,5.466-.499,5.466-1.49.995-2.236-.496-1.492.746-1.49-4.474-3.977-4.222-4.719-.749-3.231-.495-3.727-.25-2.733,2.239-2.733,2.484-1.989,2.982-.994,3.229-.498-2.734 .747-3.477-.747-2.484 4.226-4.971 4.473-4.969 2.982-5.466 9.939-2.237 10.685-.249 10.188-1.241 1.243.746 1.49-.746h1.23z" fill="#dbba1e"/>
  <path d="m96.911,125.73-.747,1.989-2.235.995-1.242,1.488h-.747l-.248-.496-.247-.993 .993.246 .497-.496 1.243-1.244 1.242-1.24 1.242-.995 .249.73z" fill="#f661ae"/>
  <path d="m298.19,157.79-5.219,3.479-4.719,5.716-5.718,1.989v.993h-1.241l-.499.497-9.193-.497-8.197-2.732-9.197-.25-7.453-1.989-8.696.25-7.705-2.237v-.495l3.23-1.739 2.486-2.984 3.23-1.49 1.738-2.486 2.237-1.49 2.235-2.237 .994.25 1.491.248 .745-.498 .746.25 .25,1.242 1.24-.25 5.715-6.71 7.455-5.961 5.716-6.96 15.655,2.734 15.156.749 15.906-1.244 .991,1.49 1.243-.745 1.242-.745 6.959-8.45-7.953,11.926-9.94,10.19-10.94,10.18z" fill="#fd9f4c"/>
  <path d="m99.892,126.98-.497,1.24-1.242,1.492-.994.745-1.242-1.492 2.733-.991 .745-1.244 .25-.249 .248.249v.24z" fill="#f661ae"/>
  <path d="m100.39,130.2-.497.25-.497.745-.745-.495-.746-.995 1.988-.747 .248-.496 .747.25-.25.993-.25.51z" fill="#f661ae"/>
  <path d="m239.3,128.47v2.981l-3.23,2.98-2.486,1.744h-.497l1.491-2.984 2.733-2.484 2-2.24z" fill="#f661ae"/>
  <path d="m139.65,131.45-1.49,1.241-.745,1.739-1.492,1.494 1.242.745 1.491-.496h1.492l1.242-1.244 1.491-1.74 1.739-1.244-.248,1.739-1.492.995-.995,1.494 1.242.743 1.989-.497h1.739l.747-.995 1.241-1.49 1.493-.496-.25,1.24-.745.745-.746.749 1.49.99 1.74-.744 1.491.497 .995-.743 .248-1.244 .994-.25-.248,1.99 .995.742 1.739-.495 .994.247 .495-.744 .498-1.241 .994-.249 .498.744-.498.746-.248.744h1.489l3.728,2.237-.248-3.228 .248-.25 .249-.5h.498l.497.749-.249.99-.498.748 1.492.495h1.738l1.74.25 .498-.745-.498-.995 .993-.743h.747v2.732l13.915,1.985v.25h.25v.25l-.498.25-8.946-1.494-8.946-.995-8.946-.994-.993,1.743-.249-1.989h-2.237l-2.236-.995-.498,1.74-.995-2.237-3.23,1.492-1.986-.5-.497.5-.25.745-.745-.25-.25-1.243-1.987.748-3.48-1.987-.497,2.982-.993.246 .745-1.49-.497-.498-1.241.748-3.48-2.237-.248,2.982v.496h-.745l-.25-1.988-1.491-.495-1.739.248h-1.491l-1.242.495 .25,1.495-1.244.246-.497-.745 .747-.745v-.498h-4.722l-1.241.748v2.235h-1.492l-.994-.995 1.243-.745 .498-.995-2.983.25-3.728.25-2.733-.748v-.495l5.467-.496 6.71,1.738 3.229-5.966h.25l-.25,1.494-1.489.991-.995,1.494h4.225l4.472-4.474 .248.246-.994,1.244-.745,1.49-1.242,1.244 1.242.746 1.988-.496 1.74.25 1.49-2.489 2.237-1.24 1.738-1.989v1z" fill="#ffff8f"/>
  <path d="m242.52,131.7-.497,1.494-1.493.994-.744,1.241h-.993l-.25-1.74 1.987-.994 .996-1.49 .497-.25 .247.25 .23.5z" fill="#f661ae"/>
  <path d="m246,132.94 .248.995-.994.249-.496.746h-.995l-.248-.5v-.991l.992-.499 .498-.745 .497-.25 .498.745v.24z" fill="#f661ae"/>
  <path d="m102.38,135.18-5.467,3.478-.25-4.722 1.988.249 1.987.246 1.74.74z" fill="#65007d"/>
  <path d="m278.8,135.92-.248.993-9.193,8.696-.745-.246v-.749l.246-.496 2.983-2.732 2.98-2.984 2.486-3.228h1.242l.24.75z" fill="#fff08d"/>
  <path d="m368.76,142.38 .498,1.488-.25,1.494 .499,1.49h.247l1.738,6.711-.99,7.206 .99,6.956 .747,11.182 1.492,10.935v10.932l-1.989.25-1.24-17.396 1.24-19.879-4.225-17.146-1.492-3.973-1.737-5.717h-5.218l.744-.248h1.242l.747.248 2.734.495 2.483,2.735 1.75,2.24z" fill="#e19f75"/>
  <path d="m374.47,141.64 1.49,18.883v19.88l3.232,18.883-.748.499-.994.25h-.745l-2.731-20.626-.995-21.368-1.242-20.627 2.73,4.24z" fill="#f0bf91"/>
  <path d="m281.54,139.15-1.738,1.494-.498,1.989-1.738,1.488h-.248l-.498.25-.248-.25 .994-2.482 1.738-2.239 1.74-1.739 .995-.25v1.245l-.48.49z" fill="#fff08d"/>
  <path d="m362.79,139.4 2.486,2.734 .744,3.727 1.245,3.479 3.478,15.159-.994,17.395 .994,16.149-.745.745 .745,1.49v.995l-16.646,3.977-16.651,4.973-16.399,4.718-.994-9.441-1.242-33.549 .248-6.956h.25l.247-.496 .249-.25-1.491-7.951 1.491-8.698 6.211-5.466 2.733-2.734 3.479,2.239h3.479l2.981,1.24 2.486,3.231 .746,3.229-.746,1.243-1.738,1.24 .744,1.989 1.242,1.494h3.976l.496,2.233-.746,3.479 2.983.75 2.235-1.99 .249-2.981-.249-2.734 1.242-.496 1.242-.749 .747-1.241 .498-.994-.748-.993-.497-.995-1.489-.25v-1.49l.247-1.244 .995-2.979 1.492-3.728 3.479-.995 1.987-.5 1.739.995 1.49.98z" fill="#545678"/>
  <path d="m288.25,139.15-.746,1.74-1.491,1.494-.497,1.737-.25.496-.497-.246h-.247l-1.241-2.237 2.732-1.989 .993-1.74 .498.25h.496l.26.5z" fill="#fff08d"/>
  <path d="m293.96,139.9 .25,1.985-1.989.995-.994,1.242-.496.25-.25-.499-.249-.248 .249-1.74 1.988-.745v-1.74h.496l.498.25 .49.25z" fill="#fff08d"/>
  <path d="m178.66,145.36 .745-.25 .248.995h.497l2.733.495h2.735l2.235,1.74-.248.746-.498-.746-.497.499-.248.995-.498,1.238h-.993l-.745-.495 .248-.743 .249-.5 .496-.249v-.746l-4.72-1.241-.995.745v1.99l-1.491.246-.995-.994 1.741-1.491-.498-.995h-2.733l-5.219-2.981v5.715l-.498-.249h-.248l-.746-1.491 1.741-.745 .495-1.244-1.988-.496-1.739-.25-1.988-.25-2.734,3.979-.497.249-.248-.745-.249-.25 .249-1.494 1.242-.745 .497-.995-1.244-.496h-1.242l-1.242-.25-3.478,3.978h-.498l-.497-.25v-.496l2.484-3.233-8.201-1.239-8.447-.749-8.2-1.24h-.498l-.25-.995 .747.25 15.157,1.985 15.904,1.244 14.69,2.24z" fill="#ffff8f"/>
  <path d="m296.94,142.13 .743,1.49-2.237.497-.744.995h-.745l-.248-.25-.497-.25 .745-1.241 1.739-.743v-1.244l.745-.25v.745l.5.23z" fill="#fff08d"/>
  <path d="m410.26,164.25-.251.25-.744.496-.495-.496v-.497l-9.692-5.469-8.449-7.701-7.702-8.948 7.952,8.948 9.441,8.2 9.93,5.22z" fill="#fed95e"/>
  <path d="m316.82,181.64 1.74,34.291-.745.499h-.745l-.745.246-1.989-16.401-.247-18.384-.746-16.65 .248-5.467-.744-6.46 .247-5.467-.745-.995 3.728-4.222 .499,13.168v12.922l.23,12.91z" fill="#f0bf91"/>
  <path d="m394.35,164h-1.739l-1.493-.995-1.239,1.243-1.492,1.739v-1.987l-1.242-1.74-1.49-.746-2.238-.499-2.235.25-1.491,1.99-1.738,2.732-.499-6.211-.246-7.954-.499-7.452 5.719,6.957 6.211,6.461 5.72,6.22z" fill="#be7927"/>
  <path d="m110.33,147.35 4.722,3.727 3.976,3.978 3.975,4.967-.745,11.681-25.097-5.466v-6.215l1.491-6.956-1.491-6.212 .745-.25 12.422.75z" fill="#65007d"/>
  <path d="m219.17,147.85 3.231,4.472 2.981,4.224 2.484,4.97-.744.25-.498.245-.496.5v.993h-.25v.248l-.248.25v1.242h1.491l.248,1.24 2.733,5.716 .995,6.461 2.235,5.965 .498,6.957-.995,7.455-.994,6.707-10.683-3.477-11.431-3.975-10.933-4.226-.994-11.927v-10.935l1.737-11.678 5.716-2.981 5.219-4.723 4.969-4.718 3.72.75z" fill="#bf3902"/>
  <path d="m115.3,147.6 3.23,2.239 1.492,4.717 3.975,1.244 1.243.745 .745,1.492 .497,1.24-1.242.25-.993-1.739-.995-.498-9.691-9.69h1.73z" fill="#e19f75"/>
  <path d="m123.25,148.34 .497,1.494-.25,1.983v1.743l-2.483-.995-.747-2.981-2.236-1.74 5.22.5z" fill="#65007d"/>
  <path d="m226.87,148.6 1.74,3.228 2.236,3.482 1.244,3.727-2.485,1.74-7.7-12.93 4.97.75z" fill="#fdcdae"/>
  <path d="m311.35,170.71-1.737-.993-1.739-1.244-1.988.745-2.98.995-2.984,2.732-.744,2.984-1.245-1.99-2.234-1.739-2.484-.25h-2.236l-1.988.994-1.49,1.74v-5.961l8.199-5.716 8.199-7.206 6.958-7.456-.247,7.705 1.241,7.702-.51,6.97z" fill="#be7927"/>
  <path d="m126.73,148.6-.248,2.237 .248,3.229-.248,2.484-2.235-1.49 1.241-3.729v-2.732l.498-.25 .248.499 .5-.25z" fill="#b68066"/>
  <path d="m237.31,154.81-1.241.995-1.242,1.242-1.244.495-4.471-8.694 4.721.495 3.47,5.47z" fill="#bf3902"/>
  <path d="m152.82,152.82v9.694l.25,8.198 .498,9.441-8.697-2.235-8.45-2.483-8.697-2.489-.248-7.95 .744-7.951 .498-7.952 8.201,1.244h8.448l7.46,2.48z" fill="#81017e"/>
  <path d="m242.52,150.08-3.479,3.481-.993-.995-1.244-1.494-.247-1.488h1.986l2.238.25 1.73.25z" fill="#e19f75"/>
  <path d="m351.61,149.84 .745,1.238-1.987.499-.745.496-2.237.25-2.236.995-2.733-.25v-1.49l.995.246 .994.25 .496-1.24v-.498h1.242l.498-.25 1.491-.495 1.74.495 1.75-.26z" fill="#fdcdae"/>
  <path d="m284.02,154.56-1.242,1.244-.495,1.737h-1.494l-.495-.248 3.975-5.963 1.988.745-1.988,1.494-.26.99z" fill="#fff08d"/>
  <path d="m270.35,152.32v2.235l-2.98.25-1.49.745h-.498l-.747.25-.496-.25 2.237-.995 1.738-1.985 2.24-.26z" fill="#fff08d"/>
  <path d="m279.3,152.57 .498,2.484-3.23,1.49-1.74.992-.496-.248 1.241-1.985 1.741-1.494 1.99-1.24z" fill="#fff08d"/>
  <path d="m157.29,153.81 .994,9.445-1.492,8.448 .995,9.195-.497.495-1.242-.25-.498-.745-.994-9.195 .746-8.943-.249-9.195 .746.25 1.242-.499 .25,1z" fill="#b68066"/>
  <path d="m167.48,156.05 .498,9.193-.746,9.939 .746,9.193-2.733-.745-2.734-.993-2.485-.745-1.49-9.943 1.74-8.198-1.242-9.94 7.703,1.494 .73.76z" fill="#be7927"/>
  <path d="m348.13,154.56v1.244l.495,1.737-.744.995-.745-.995 .247-1.737v-1.244h.74z" fill="#e19f75"/>
  <path d="m165,156.05-.747,1.987-1.74,2.484-1.988.994-.497-.744 .994-1.99 1.738-1.492 .498-2.235h1.742v.99z" fill="#793118"/>
  <path d="m173.94,157.79 2.483,4.224 2.983,3.977 3.478,3.729 .25.496 .248.25v.497h-1.49l-4.723-4.721-3.23-4.972-3.728-4.969 1.243.248 1.988-.248 .5,1.48z" fill="#e19f75"/>
  <path d="m216.18,158.04-.496,1.985-2.487,1.744-1.241,1.49-1.741,1.987-1.489,2.235-.498,2.734h.498l3.478-2.235 2.982-2.734 3.976-.25 .497.495 .248.995-.745.499-2.982,3.727-3.726,3.229-1.492,4.472h.994l3.728-2.233 3.229-3.479h4.225l.747.495-.25,1.245-.497.496-2.237,2.484-2.483,2.486-1.245,2.734h-.248l-.249.496-.248-.25-.994-.745 1.242-.745-.248-.745 4.97-6.461-3.976.496-2.983,4.226-3.975,1.241-.25-.246h-.746v-.745l.25-5.221 4.72-3.229 2.983-3.976-3.48,1.244-3.478,2.732-2.983,2.484-.744.25-.746-.499v-.77l.746-4.967 2.484-4.475 3.976-3.479-4.223.25-3.728,4.225-2.981,2.732h-.498l-.497-.246-.248-.25v-.994l3.478-3.478 4.226-3.233 4.471-.993h1.242l1.245-.248 .5.99z" fill="#48005d"/>
  <path d="m179.9,159.53-.249,1.245 .497.995-.248,1.49-1.241-1.49-.994-1.99-.995-1.989 .995.745 1.986-.745 .23,1.73z" fill="#81017e"/>
  <path d="m165.74,160.27-.497,1.989-1.242,1.74-1.492,1.242h-.497l-.497-.499 .744-1.987 1.244-1.74 .994-1.739 .994-.246-.248.991 .52.26z" fill="#793118"/>
  <path d="m180.15,187.86-3.23-.995-3.479-.745-2.98-1.244-1.245-7.948 .747-9.691-.25-7.955 10.687,13.171-.26,15.41z" fill="#81017e"/>
  <path d="m184.13,160.02-.25,2.488 .498,3.727-.746,2.734-.497-.749-.995-.991 .497-.994-.497-.25v-6.71l1.99.74z" fill="#b68066"/>
  <path d="m126.23,160.77-.248,4.222 .497,3.978-.747,3.727-.248-.25h-.497l-.496-.25 .249-3.727-.249-4.472 .993-3.229h.76z" fill="#b68066"/>
  <path d="m188.85,164 3.23.248 2.236-2.237 2.733-.995-.498,10.438-.496,10.935 .746,10.683-3.48-.246-3.727-1.741-3.48-.991-1.489-9.943 1.241-9.689 .498-9.69 1.242.744-.498,2.236 1.75.24z" fill="#81017e"/>
  <path d="m387.14,169.96v.497l-.497.497-.498-.25 .498-2.732-.498-2.734-1.738-1.987 2.485.993-.747,3.479 1.01,2.23z" fill="#e19f75"/>
  <path d="m385.16,170.71v.496l-.746.499 .746.246 1.987-.496 .994,1.49 1.74-1.49-.746-1.987 .746-2.484 1.489-.995h.995v1.244l.498.496 .992,7.455-.496,7.456 .248,7.702-2.237.497-3.727-2.982-.497,3.478 1.988.745 2.235-.246 1.989.496 .248,4.723-11.679,1.987-.496-.499-1.492-8.198-.744-8.696-.748-8.7 .25-3.477 .248-3.729 2.982-1.987v.25l-.496.248 .496.25 .499.246 .245-.246 .25-.497-.25-.498 2.486,1.241 .248,3.479-.24,2.48z" fill="#545678"/>
  <path d="m234.57,176.43 2.236.496-2.98,2.236 2.733.246 .496,1.494 .498,1.49v1.49l-1.741.993 .25-2.482-1.492-.25-2.483-5.466 .248-6.957-3.728-5.218 3.48,3.229 1.739,4.472 .73,4.23z" fill="#f0bf91"/>
  <path d="m235.57,166.73v5.217l-3.478-6.707 1.241.495 2.236-.994v1.98z" fill="#fdcdae"/>
  <path d="m165.99,166.48-.745,1.74-1.242,2.486-2.236.25-.249-.497 .993-1.739 1.492-1.49 .745-1.989h.498l.745.745v.5z" fill="#793118"/>
  <path d="m397.83,167.73 .746,9.443 .991,9.44 .746,9.195-.498.25-.248.25h-.496l-1.241-9.694-.249-10.184-.499-10.439 .75,1.74z" fill="#fdcdae"/>
  <path d="m238.05,167.73v4.721l.495,3.479-.495,4.721-.747-1.49-.497-1.244 .747-1.488v-10.189l.51,1.49z" fill="#e19f75"/>
  <path d="m263.15,169.72 4.225,6.212 2.233,7.206 3.979,6.461 .495,2.483 .996,2.488 1.49,2.235 .248.25 .995,1.242v1.241l-.497,7.955 .744,8.447-1.49,7.705-12.673-5.468-12.922-4.971-12.673-5.216 .995-13.417 1.24-14.415-.247-13.667 7.703,1.244 7.454,1.244 7.71.77z" fill="#9c017e"/>
  <path d="m395.1,168.72 .744,8.945v9.442l.496,9.441h-.745l-.495.499-.747-.25 .995-1.49-1.988-2.484 1.74-1.244-.25-.993-.497-.745v-8.45l.747-7.951-1.492-6.959h.994v1.494l.51.75z" fill="#e19f75"/>
  <path d="m288,228.11-.744.495-.996-.495-.994-.25v-7.95l-1.49-32.551 .496-5.466-.496-5.466 .496-5.469 .994-.747v17.893l.498,21.368 2.23,18.66z" fill="#f0bf91"/>
  <path d="m446.78,171.2-1.242,1.244-2.484-.745-1.74.246v.994l-5.715.499h-6.212l-5.718.25-.992-.25 .497-.994-.744-.499-4.225.749-4.972-.25-4.224,1.49h-.745l-.497-.246-.247-.5v-.99l6.211-1.241h6.709l6.71-.25 1.242.496-.498.25 1.492.496 1.985-.246h1.741l.248-1.987 2.237.993 1.492-.497h3.229l3.229.25 3.22.74z" fill="#20842b"/>
  <path d="m268.37,170.46 4.471,7.206 2.982,7.703 1.989,7.951 .495,1.49 1.245-1.985 .247,1.739-2.484,1.49-.247-3.229-.995-1.494-.499-3.727-3.229-2.734-.993-3.477-1.491-3.727-2.236-3.479-1.738-3.727h2.5z" fill="#fdcdae"/>
  <path d="m277.31,171.95 .992,3.979-.495,4.721-.249,4.222-2.734-4.222-.746-5.217-2.98-4.228 6.22.75z" fill="#9c017e"/>
  <path d="m311.11,173.69 .497.745-.993.995 .993.496 .248,13.667 .995,13.917 .994,13.667 .248.25-4.473,1.984v-14.907l1.241-14.909-.746-14.911-.249-1.49-.745-.994-.744-.995 1.243.25 .745.995 .75,1.23z" fill="#e19f75"/>
  <path d="m308.87,173.94 1.239,14.662-.744,16.153-1.244,15.157-5.714,2.734-6.213,1.49-5.715,2.982-1.989-10.188-.245-10.935-.746-10.933 .991-7.206-3.727-9.195 6.462-4.722 1.738-.745 1.74.995v1.99l.744,1.738-.994,1.49-.245,1.739 1.985-.246 1.738.745 1.989.496 2.485-.995-1.987-2.484 .743-1.737 .499-2.239 1.49-2.235 1.988-1.244 2.237-.743 .743,2.237 .74,1.24z" fill="#545678"/>
  <path d="m161.02,173.19-.248.25-.747-.994 .497-1.244 2.235.995-1.74.99z" fill="#793118"/>
  <path d="m165.24,172.94 .497,1.99-1.989.995-1.242,1.242h-.744l-.249-.248 2.733-4.973h.497l.498.25v.75z" fill="#793118"/>
  <path d="m183.38,189.1h-.248l-.25-.25h-.248l-.744-5.467 .248-6.213 .497-5.221h.746v17.15z" fill="#b68066"/>
  <path d="m281.78,196.06-4.969-6.211 3.975-8.945-.992-7.456 2.237-1.493-.25,24.11z" fill="#b68066"/>
  <path d="m298.43,180.15h-2.732l.496-1.49-.247-2.233-.249-1.744 1.739,1.494 .745,1.987 .25,1.98z" fill="#e19f75"/>
  <path d="m441.32,176.92v.495l-9.941.25-10.436-.745-9.689,2.236-.499-.499-.247-.495 .247-.747 .249-.248 9.443-1.492 11.682.25 9.2,1z" fill="#20842b"/>
  <path d="m225.38,179.16-.248,1.74-1.242,1.739-1.491.993-.498.248-.744-.248v-.497l1.242-1.74 1.491-1.49v-1.989l.744-.498 .746.993v.76z" fill="#48005d"/>
  <path d="m445.54,183.38v.248l.495.248-.245.498-.5.25-11.429-1.242-11.681-.499-11.182,1.741-.744.246v-1.24l.248-.497 11.183-1.74 12.672.745 11.17,1.24z" fill="#20842b"/>
  <path d="m227.12,183.63-.498,2.98-1.988,2.239-2.486,1.49-.248-.246-.249-.25h-.248l1.739-2.239 2.237-1.989 .497-2.978 .746.246 .498.25v.5z" fill="#48005d"/>
  <path d="m124.99,185.12 .25.745-.746.499-.248.246 .993-.995-2.23-.5-.745-.25-13.419-.743-14.164,2.236-13.169,2.485h-1.489l-.25-1.245h1.242l.496-.496 13.667-1.739 14.661-3.727 13.916,2.732 .498.25h.496l.24.49z" fill="#59ab21"/>
  <path d="m236.81,203.26-.496,1.242-.498,1.24 .25,1.494-4.474.496 3.231-4.967-.25-1.99 .747-5.216v-5.466l.495-5.468 1.989.745-1,17.9z" fill="#e19f75"/>
  <path d="m139.65,187.61-1.49,2.239-3.728-1.989-2.484.995-3.23.495-3.479.25h-3.728v-.51l4.72-.75 5.467-.495 4.721-.995 1.242.25h1.244l.75.5z" fill="#59ab21"/>
  <path d="m227.37,190.84-.746,2.235-2.484,1.74-1.989.749h-.497l-1.242-.25 .497-.499 2.237-.995 1.739-1.985 1.245-1.987 .743-.25 .498.745v.5z" fill="#48005d"/>
  <path d="m152.08,192.83-1.491,1.24-1.492-1.989-1.986.749-13.667.745-.497-.499 4.223-1.49 6.461.25 4.723-.747 1.241.248 1.99-.248 .51,1.74z" fill="#59ab21"/>
  <path d="m227.37,195.81-1.491,1.739-1.986.993-1.742.499-.248-.499 4.474-4.472h.993l.497.745-.49.99z" fill="#48005d"/>
  <path d="m173.94,197.55 .248.248 .497.745-.497.499-1.242.496-.993-1.74h-1.242l-10.437-1.987-9.442.745-10.189,1.987-.497-.246 .248-.25v-.497l10.686-2.734 12.175-.745 10.68,3.47z" fill="#59ab21"/>
  <path d="m103.87,195.31-.993,1.739h-2.238l-1.242,1.488 4.97-.246 4.969-1.242 5.22-.25 6.461-.25h6.46l5.467,2.237 .248.25 .25.246v.499l-.497.745-.747-.495h-.744 .248l-.745-.749-10.436-1.985-11.431.994-10.188,2.484h-2.236v-1.989l2.236-1.49 2.237-1.492 2.73-.49z" fill="#59ab21"/>
  <path d="m281.78,196.8 .251,9.692 1.243,9.94-.249,10.188-1.493-.5-1.489-.745-1.243-.497 .496-8.945 .747-10.436-.249-9.692 1.738,1.492 .24-.5z" fill="#b68066"/>
  <path d="m274.08,198.04v1.989l-2.484.745-1.49.995-1.243.496-1.489,2.237-1.49-1.492v-.496l2.484-1.49 2.732-1.744 1.738-1.985 .747-.248 .495.496v.47z" fill="#f9606c"/>
  <path d="m194.81,205.5 .498.495 .746.745-.249.499-15.903-5.217-18.636-1.744-17.644,2.489v-.25h-.248l11.678-3.233 14.413.994 12.177,1.99 13.16,3.23z" fill="#59ab21"/>
  <path d="m275.82,201.77 .499,2.485-2.734.497-1.491.991-1.492.25-1.739,1.989-1.241-.995-.499-1.244 1.494-.246 .495-.25 1.988-.992 2.733-.995 .748-2.235 .744-.25 .246.745 .24.23z" fill="#f9606c"/>
  <path d="m114.55,205.5 7.455-.745 8.448-.25 6.708,2.484 .497.499 .25.496v.495l-1.989.995h-2.483l-1.988,1.244h4.224l4.721-.496 3.978.991-5.717.248-5.963,1.494-6.212-.749-.25-.495-.248-.498v-.495l2.981-1.49 3.728.246 2.732-1.49-8.199-1.989-9.939.25-7.953,2.484-.497-.25-.745-.246 .25-.499 .248-1.49 1.989.25 .992-.994 1.491-.5 1.492-.495 1.739-.248-1.73,1.27z" fill="#59ab21"/>
  <path d="m435.1,206.99-3.479.995-3.229-1.74h-3.479v-.25h-.496l.245-.495-8.447.745-9.69-.745-8.201,2.235-2.98-.246 .496-.995h1.49l.994-.25 8.698-1.49 8.698-.747 9.442.498 3.478.745 3.481.25 2.98,1.48z" fill="#40a629"/>
  <path d="m274.83,206.49 .25,3.729-4.225.496-2.235,1.242h-1.243v-.499l1.243-1.488 2.235-.995 1.739-.994 .994-.25 .248-2.235 .99.99z" fill="#f9606c"/>
  <path d="m197.55,211.96 2.982-.499 3.231-1.987 2.733,1.987v.499l-.249.745h-.74l-1.242-.25-1.491-.25-.995.749 5.714,1.24 4.973,2.734 6.458-1.24 2.486-.749 3.478-.496 2.486,1.49 .497.745-.744.749h-.746l-2.484-1.244-2.984.745h-2.981l-.249.499v.743l-.746.25-2.235-1.492-3.23.995-1.74-1.739-5.467-.25-4.723-3.975-5.465,2.235h-1.989l2.485-1.49-1.491-.25-2.236-1.49-1.242,1.49-5.716-.994-5.217,2.734-5.468-.25 3.229-1.49 3.728-.495 3.48-1.242-.249-.25-12.425-1.989-13.417.499-11.928,1.74 4.472-1.74h6.958l5.714-.994 12.426.25 10.932.745 11.42,2.98z" fill="#bfe23e"/>
  <path d="m274.08,211.46v2.238l-2.234.995-1.74.995h-.994l.25-.749 .496-1.74 2.236-.246 1.242-1.494h.74z" fill="#f9606c"/>
  <path d="m411.5,215.19-13.667,1.244-13.916-.995-13.666,1.24-4.724.499-4.223.993h-4.721l1.986-1.492h2.982l2.733-.495 15.405-1.49 16.152-.5 15.67,1z" fill="#40a629"/>
  <path d="m402.06,223.89 .248.495-13.667-.25-13.667-.995-14.661.749-4.721.246-4.971.25h-5.218l18.386-2.734 19.631.496 18.64,1.73z" fill="#40a629"/>
  <path d="m253.46,224.63 .745.495 .748.25 .495.745-1.243,1.99-1.49-1.99-1.489-.25-9.445-1.738-10.436,1.738h-9.44l-.249-.496 10.188-1.488 11.432-.995 10.19,1.75z" fill="#bfe23e"/>
  <path d="m360.06,232.83 .498.25 .249.495v.496l-.747.25-11.926-4.222-13.171-2.489-13.915.5-.994-.25-.497,1.74-.994-.745-.248-2.235 2.237.745 1.239-.745 13.422.246 12.921,1.989 11.93,3.97z" fill="#bfe23e"/>
  <path d="m265.88,230.6 .744.499 1.241.495-.746.993h-1.737l-1.491-1.242-1.99.25-13.665-2.734-15.653-.25-13.419,2.983-.249-.25 2.733-1.985 3.48.246 3.478-.745 12.922-1.49 11.926,1.241 12.44,1.99z" fill="#bfe23e"/>
  <path d="m348.38,237.31 .248.25v.744l-.991.25-10.687-1.741-12.425-.991h-11.431l.995-.749h1.492l1.239-.246 11.183-.749 9.692,2.488 10.7.74z" fill="#bfe23e"/>
  <path d="m293.96,244.26 1.489.745v1.741l.746,1.24-.247.745-.994-.496-.499.25-.245-.25h.495l.495-.25 .249-.25-2.98-4.472-5.715.25-4.226-1.74-24.848-5.217-26.588-1.493-25.844,3.48h-.248v-.497l-.25-.25 1.244-.496h1.242l1.492-.25 10.187-1.739 10.189.499 10.684-.749 17.892,1.244 19.631.995 16.64,6.98z" fill="#bfe23e"/>
  <path d="m329,241.78v1.74l-1.738-.745-.996.745-6.211,1.49-7.205-.745-6.958.498v-.248l7.702-1.244h7.953l6.958-2.235 .51.74z" fill="#bfe23e"/>
 </g>
</svg>
